<svg xmlns="http://www.w3.org/2000/svg" viewBox="0 0 800 450" font-family="Segoe UI, Helvetica, Arial, sans-serif">
  <rect width="800" height="450" rx="14" fill="#ffffff" stroke="#e2e8f0"/>
  <text x="400" y="44" text-anchor="middle" font-size="24" font-weight="700" fill="#0f172a">Thời gian xử lý theo giai đoạn (giây)</text>

  <line x1="90" y1="90" x2="90" y2="380" stroke="#cbd5e1" stroke-width="2"/>
  <line x1="90" y1="380" x2="740" y2="380" stroke="#cbd5e1" stroke-width="2"/>

  <g font-size="13" fill="#64748b" text-anchor="end">
    <text x="80" y="384">0</text>
    <text x="80" y="308">25</text>
    <text x="80" y="232">50</text>
    <text x="80" y="156">75</text>
    <text x="80" y="94">100</text>
  </g>

  <g>
    <rect x="140" y="140" width="90" height="240" rx="6" fill="#3b82f6"/>
    <text x="185" y="404" text-anchor="middle" font-size="13" fill="#334155">Ingest</text>
    <text x="185" y="128" text-anchor="middle" font-size="14" font-weight="700" fill="#1e3a8a">79</text>

    <rect x="290" y="230" width="90" height="150" rx="6" fill="#22c55e"/>
    <text x="335" y="404" text-anchor="middle" font-size="13" fill="#334155">Transform</text>
    <text x="335" y="218" text-anchor="middle" font-size="14" font-weight="700" fill="#166534">49</text>

    <rect x="440" y="300" width="90" height="80" rx="6" fill="#f59e0b"/>
    <text x="485" y="404" text-anchor="middle" font-size="13" fill="#334155">Validate</text>
    <text x="485" y="288" text-anchor="middle" font-size="14" font-weight="700" fill="#92400e">26</text>

    <rect x="590" y="180" width="90" height="200" rx="6" fill="#8b5cf6"/>
    <text x="635" y="404" text-anchor="middle" font-size="13" fill="#334155">Load</text>
    <text x="635" y="168" text-anchor="middle" font-size="14" font-weight="700" fill="#5b21b6">66</text>
  </g>
  <text x="400" y="436" text-anchor="middle" font-size="12" fill="#94a3b8">Benchmark giả lập — mock data</text>
</svg>
