<svg xmlns="http://www.w3.org/2000/svg" viewBox="0 0 800 500" font-family="Segoe UI, Helvetica, Arial, sans-serif">
  <rect width="800" height="500" rx="14" fill="#0f172a"/>
  <rect x="24" y="24" width="752" height="452" rx="10" fill="#ffffff"/>
  <rect x="24" y="24" width="752" height="46" rx="10" fill="#e2e8f0"/>
  <circle cx="48" cy="47" r="7" fill="#ef4444"/>
  <circle cx="72" cy="47" r="7" fill="#f59e0b"/>
  <circle cx="96" cy="47" r="7" fill="#22c55e"/>
  <rect x="140" y="38" width="500" height="18" rx="9" fill="#cbd5e1"/>

  <rect x="24" y="70" width="180" height="406" fill="#f8fafc"/>
  <rect x="48" y="100" width="120" height="14" rx="7" fill="#94a3b8"/>
  <rect x="48" y="134" width="132" height="14" rx="7" fill="#3b82f6"/>
  <rect x="48" y="168" width="110" height="14" rx="7" fill="#cbd5e1"/>
  <rect x="48" y="202" width="128" height="14" rx="7" fill="#cbd5e1"/>
  <rect x="48" y="236" width="96"  height="14" rx="7" fill="#cbd5e1"/>

  <rect x="236" y="102" width="360" height="30" rx="8" fill="#1e293b"/>
  <rect x="236" y="156" width="516" height="120" rx="10" fill="#eff6ff" stroke="#bfdbfe"/>
  <rect x="236" y="300" width="250" height="120" rx="10" fill="#f0fdf4" stroke="#bbf7d0"/>
  <rect x="502" y="300" width="250" height="120" rx="10" fill="#fef2f2" stroke="#fecaca"/>

  <text x="400" y="470" text-anchor="middle" font-size="13" fill="#64748b">Mockup giao diện trang chủ mới — mock data</text>
</svg>
